<svg id="Shopicons_Regular_ChristmasDelivery" xmlns="http://www.w3.org/2000/svg" width="24" height="24" viewBox="0 0 24 24">
  <path id="Path_526" data-name="Path 526" d="M0,0H24V24H0Z" fill="none"/>
  <g id="Shopicon" transform="translate(2 4)">
    <path id="Path_527" data-name="Path 527" d="M20.182,7.2h-.159a2.133,2.133,0,0,0,.159-.8A2.579,2.579,0,0,0,17.455,4a2.579,2.579,0,0,0-2.727,2.4,2.133,2.133,0,0,0,.159.8h-.317a2.133,2.133,0,0,0,.159-.8A2.579,2.579,0,0,0,12,4,2.579,2.579,0,0,0,9.273,6.4a2.133,2.133,0,0,0,.159.8H9.273A1.871,1.871,0,0,0,7.709,8H7.455C4.455,8,2,10.16,2,12.8v4.8H3.818A2.579,2.579,0,0,0,6.545,20a2.579,2.579,0,0,0,2.727-2.4h3.636A2.579,2.579,0,0,0,15.636,20a2.579,2.579,0,0,0,2.727-2.4h1.818A1.725,1.725,0,0,0,22,16V8.8A1.725,1.725,0,0,0,20.182,7.2Zm-3.636-.8a.917.917,0,0,1,1.818,0,.917.917,0,0,1-1.818,0Zm-5.455,0a.917.917,0,0,1,1.818,0,.917.917,0,0,1-1.818,0Zm-4.545,12a.807.807,0,1,1,0-1.6.807.807,0,1,1,0,1.6Zm.909-8.8V12H3.938A3.587,3.587,0,0,1,7.455,9.6ZM3.818,16V13.6H7.455v1.74a3.048,3.048,0,0,0-.909-.14,2.89,2.89,0,0,0-2.029.8Zm11.818,2.4a.807.807,0,1,1,.909-.8A.861.861,0,0,1,15.636,18.4ZM20.182,16H17.665a2.972,2.972,0,0,0-4.057,0H9.273V8.8h3.715l-2.273,2L12,11.931l2.727-2.4,2.727,2.4L18.74,10.8l-2.273-2h3.715Z" transform="translate(-2 -4)"/>
  </g>
</svg>
