<svg id="Shopicons_Filled_Mail2" xmlns="http://www.w3.org/2000/svg" width="20.109" height="20.109" viewBox="0 0 20.109 20.109">
  <path id="Path_11" data-name="Path 11" d="M0,0H20.109V20.109H0Z" fill="none"/>
  <g id="Shopicon" transform="translate(1.676 1.676)">
    <path id="Path_12" data-name="Path 12" d="M12.379,20.758A8.324,8.324,0,0,0,18.3,18.3l-1.185-1.185a6.7,6.7,0,1,1,1.963-4.74,1.676,1.676,0,1,1-3.352,0V9.027H14.055v.452a3.351,3.351,0,1,0,.839,5.11,3.347,3.347,0,0,0,5.864-2.211,8.379,8.379,0,1,0-8.379,8.379Zm0-6.7a1.676,1.676,0,1,1,1.676-1.676A1.677,1.677,0,0,1,12.379,14.055Z" transform="translate(-4 -4)" fill="#fff"/>
  </g>
</svg>
