<svg xmlns="http://www.w3.org/2000/svg" width="74.999" height="46.875" viewBox="0 0 74.999 46.875">
  <g id="Group_438" data-name="Group 438" transform="translate(-1300 -7184)">
    <rect id="Rectangle_73" data-name="Rectangle 73" width="74.999" height="46.875" transform="translate(1300 7184)" fill="#fff"/>
    <path id="Path_547" data-name="Path 547" d="M.386-5.193v-.625H4.75v.625H2.92V0h-.7V-5.193ZM5.3,0V-4.364h.648V-3.7h.045A1.048,1.048,0,0,1,6.42-4.23a1.271,1.271,0,0,1,.7-.2l.185,0q.111,0,.168.009v.682q-.034-.009-.155-.027a1.681,1.681,0,0,0-.254-.018,1.189,1.189,0,0,0-.567.132,1.008,1.008,0,0,0-.392.364.98.98,0,0,0-.143.527V0ZM9.557.1A1.76,1.76,0,0,1,8.8-.055a1.278,1.278,0,0,1-.537-.457,1.283,1.283,0,0,1-.2-.726,1.128,1.128,0,0,1,.148-.609,1.046,1.046,0,0,1,.395-.368,2.109,2.109,0,0,1,.547-.2q.3-.067.6-.107.4-.051.646-.078a.988.988,0,0,0,.364-.092.239.239,0,0,0,.115-.227v-.023a.893.893,0,0,0-.229-.653.93.93,0,0,0-.692-.233,1.206,1.206,0,0,0-.753.21,1.243,1.243,0,0,0-.384.449L8.193-3.4a1.533,1.533,0,0,1,.456-.621,1.718,1.718,0,0,1,.625-.312,2.617,2.617,0,0,1,.669-.089,2.753,2.753,0,0,1,.484.05,1.584,1.584,0,0,1,.531.2,1.19,1.19,0,0,1,.428.463,1.723,1.723,0,0,1,.17.83V0h-.67V-.591h-.034a1.18,1.18,0,0,1-.227.3,1.311,1.311,0,0,1-.423.276A1.631,1.631,0,0,1,9.557.1Zm.1-.6a1.338,1.338,0,0,0,.672-.156,1.077,1.077,0,0,0,.415-.4,1.036,1.036,0,0,0,.141-.52v-.614A.392.392,0,0,1,10.7-2.1a2.822,2.822,0,0,1-.33.071q-.186.03-.361.051l-.283.036a2.6,2.6,0,0,0-.487.109.849.849,0,0,0-.364.224.573.573,0,0,0-.138.4A.6.6,0,0,0,9-.678,1.146,1.146,0,0,0,9.659-.5Zm3.8-2.125V0h-.67V-4.364h.648v.682h.057a1.255,1.255,0,0,1,.466-.536,1.456,1.456,0,0,1,.807-.2,1.6,1.6,0,0,1,.776.18,1.234,1.234,0,0,1,.517.545,2.035,2.035,0,0,1,.185.922V0h-.67V-2.727a1.136,1.136,0,0,0-.267-.8.95.95,0,0,0-.733-.288A1.162,1.162,0,0,0,14-3.679a.993.993,0,0,0-.4.406A1.342,1.342,0,0,0,13.455-2.625Zm7.1-.761-.6.17a1.163,1.163,0,0,0-.166-.294.834.834,0,0,0-.3-.237,1.073,1.073,0,0,0-.48-.094,1.146,1.146,0,0,0-.666.183.547.547,0,0,0-.266.464.478.478,0,0,0,.182.395,1.519,1.519,0,0,0,.568.241l.648.159a1.8,1.8,0,0,1,.872.433,1.021,1.021,0,0,1,.287.749,1.113,1.113,0,0,1-.214.67,1.442,1.442,0,0,1-.6.466,2.179,2.179,0,0,1-.892.17A1.962,1.962,0,0,1,17.827-.2a1.285,1.285,0,0,1-.554-.847l.636-.159a.882.882,0,0,0,.345.528A1.147,1.147,0,0,0,18.92-.5a1.248,1.248,0,0,0,.746-.2.583.583,0,0,0,.277-.482.512.512,0,0,0-.159-.382A1.024,1.024,0,0,0,19.3-1.8l-.727-.17a1.719,1.719,0,0,1-.879-.442,1.058,1.058,0,0,1-.28-.751,1.074,1.074,0,0,1,.209-.653,1.4,1.4,0,0,1,.571-.446,2,2,0,0,1,.822-.162,1.637,1.637,0,0,1,1.018.284A1.535,1.535,0,0,1,20.557-3.386Zm3.034-.977V-3.8H21.239v-.568ZM21.943,0V-4.966a1.059,1.059,0,0,1,.176-.625,1.091,1.091,0,0,1,.457-.375,1.446,1.446,0,0,1,.594-.125,1.681,1.681,0,0,1,.4.04,1.565,1.565,0,0,1,.233.074l-.193.58q-.051-.017-.141-.043a.878.878,0,0,0-.234-.026.605.605,0,0,0-.479.168.727.727,0,0,0-.146.491V0Zm4.239.091A2.037,2.037,0,0,1,25.1-.189a1.845,1.845,0,0,1-.7-.784,2.652,2.652,0,0,1-.246-1.175,2.707,2.707,0,0,1,.246-1.183,1.926,1.926,0,0,1,.688-.8,1.846,1.846,0,0,1,1.033-.288,2.069,2.069,0,0,1,.673.114,1.677,1.677,0,0,1,.605.368,1.78,1.78,0,0,1,.435.672,2.858,2.858,0,0,1,.162,1.028v.284H24.625v-.58h2.682a1.442,1.442,0,0,0-.146-.659,1.126,1.126,0,0,0-.415-.457,1.169,1.169,0,0,0-.632-.168,1.2,1.2,0,0,0-.692.2,1.315,1.315,0,0,0-.447.513,1.5,1.5,0,0,0-.156.676v.386a1.85,1.85,0,0,0,.172.837,1.21,1.21,0,0,0,.479.52,1.4,1.4,0,0,0,.713.178,1.438,1.438,0,0,0,.479-.075,1,1,0,0,0,.371-.227,1.019,1.019,0,0,0,.241-.379l.648.182a1.425,1.425,0,0,1-.344.578,1.65,1.65,0,0,1-.6.386A2.192,2.192,0,0,1,26.182.091ZM29.011,0V-4.364h.648V-3.7H29.7a1.048,1.048,0,0,1,.432-.526,1.271,1.271,0,0,1,.7-.2l.185,0q.111,0,.168.009v.682q-.034-.009-.155-.027a1.681,1.681,0,0,0-.254-.018,1.189,1.189,0,0,0-.567.132,1.008,1.008,0,0,0-.392.364.98.98,0,0,0-.143.527V0ZM34.33,0V-5.818H35V-3.67h.057q.074-.114.206-.291a1.2,1.2,0,0,1,.381-.318,1.373,1.373,0,0,1,.675-.141,1.732,1.732,0,0,1,.972.276,1.833,1.833,0,0,1,.656.781,2.8,2.8,0,0,1,.236,1.193,2.824,2.824,0,0,1-.236,1.2,1.849,1.849,0,0,1-.653.784,1.7,1.7,0,0,1-.963.277,1.385,1.385,0,0,1-.673-.141,1.223,1.223,0,0,1-.389-.321q-.136-.18-.21-.3h-.08V0Zm.659-2.182a2.415,2.415,0,0,0,.145.871,1.307,1.307,0,0,0,.423.588,1.094,1.094,0,0,0,.682.212,1.1,1.1,0,0,0,.7-.223,1.359,1.359,0,0,0,.426-.6,2.373,2.373,0,0,0,.143-.845,2.328,2.328,0,0,0-.141-.831,1.306,1.306,0,0,0-.423-.588,1.129,1.129,0,0,0-.709-.217,1.124,1.124,0,0,0-.687.206,1.254,1.254,0,0,0-.42.574A2.37,2.37,0,0,0,34.989-2.182ZM40.489.1a1.76,1.76,0,0,1-.753-.158A1.278,1.278,0,0,1,39.2-.513a1.283,1.283,0,0,1-.2-.726,1.128,1.128,0,0,1,.148-.609,1.046,1.046,0,0,1,.395-.368,2.109,2.109,0,0,1,.547-.2q.3-.067.6-.107.4-.051.646-.078a.988.988,0,0,0,.364-.092.239.239,0,0,0,.115-.227v-.023a.893.893,0,0,0-.229-.653A.93.93,0,0,0,40.9-3.83a1.206,1.206,0,0,0-.753.21,1.243,1.243,0,0,0-.384.449L39.125-3.4a1.533,1.533,0,0,1,.456-.621,1.718,1.718,0,0,1,.625-.312,2.617,2.617,0,0,1,.669-.089,2.753,2.753,0,0,1,.484.05,1.584,1.584,0,0,1,.531.2,1.19,1.19,0,0,1,.428.463,1.723,1.723,0,0,1,.17.83V0h-.67V-.591h-.034a1.18,1.18,0,0,1-.227.3,1.311,1.311,0,0,1-.423.276A1.631,1.631,0,0,1,40.489.1Zm.1-.6a1.338,1.338,0,0,0,.672-.156,1.077,1.077,0,0,0,.415-.4,1.036,1.036,0,0,0,.141-.52v-.614a.392.392,0,0,1-.186.092,2.822,2.822,0,0,1-.33.071q-.186.03-.361.051l-.283.036a2.6,2.6,0,0,0-.487.109.849.849,0,0,0-.364.224.573.573,0,0,0-.138.4.6.6,0,0,0,.26.527A1.146,1.146,0,0,0,40.591-.5Zm3.8-2.125V0h-.67V-4.364h.648v.682h.057a1.255,1.255,0,0,1,.466-.536,1.456,1.456,0,0,1,.807-.2,1.6,1.6,0,0,1,.776.18,1.234,1.234,0,0,1,.517.545,2.035,2.035,0,0,1,.185.922V0H46.5V-2.727a1.136,1.136,0,0,0-.267-.8.95.95,0,0,0-.733-.288,1.162,1.162,0,0,0-.572.139.993.993,0,0,0-.4.406A1.342,1.342,0,0,0,44.386-2.625ZM50.17.091A1.888,1.888,0,0,1,49.114-.2a1.888,1.888,0,0,1-.682-.8,2.7,2.7,0,0,1-.239-1.162,2.675,2.675,0,0,1,.246-1.175,1.929,1.929,0,0,1,.688-.8,1.846,1.846,0,0,1,1.033-.288,1.957,1.957,0,0,1,.83.17,1.588,1.588,0,0,1,.605.477,1.488,1.488,0,0,1,.293.716h-.67a1.05,1.05,0,0,0-.339-.53,1.03,1.03,0,0,0-.706-.232,1.177,1.177,0,0,0-.686.2,1.33,1.33,0,0,0-.457.571,2.109,2.109,0,0,0-.163.862,2.226,2.226,0,0,0,.161.881,1.334,1.334,0,0,0,.455.582,1.169,1.169,0,0,0,.692.207A1.2,1.2,0,0,0,50.645-.6a.979.979,0,0,0,.361-.261,1,1,0,0,0,.21-.409h.67a1.552,1.552,0,0,1-.28.695,1.569,1.569,0,0,1-.588.489A1.891,1.891,0,0,1,50.17.091ZM54.148.1a1.76,1.76,0,0,1-.753-.158,1.278,1.278,0,0,1-.537-.457,1.283,1.283,0,0,1-.2-.726,1.128,1.128,0,0,1,.148-.609,1.046,1.046,0,0,1,.395-.368,2.109,2.109,0,0,1,.547-.2q.3-.067.6-.107.4-.051.646-.078a.988.988,0,0,0,.364-.092.239.239,0,0,0,.115-.227v-.023a.893.893,0,0,0-.229-.653.93.93,0,0,0-.692-.233,1.206,1.206,0,0,0-.753.21,1.243,1.243,0,0,0-.384.449L52.784-3.4a1.533,1.533,0,0,1,.456-.621,1.718,1.718,0,0,1,.625-.312,2.617,2.617,0,0,1,.669-.089,2.753,2.753,0,0,1,.484.05,1.584,1.584,0,0,1,.531.2,1.19,1.19,0,0,1,.428.463,1.723,1.723,0,0,1,.17.83V0h-.67V-.591h-.034a1.18,1.18,0,0,1-.227.3,1.311,1.311,0,0,1-.423.276A1.631,1.631,0,0,1,54.148.1Zm.1-.6a1.338,1.338,0,0,0,.672-.156,1.077,1.077,0,0,0,.415-.4,1.036,1.036,0,0,0,.141-.52v-.614a.392.392,0,0,1-.186.092,2.822,2.822,0,0,1-.33.071q-.186.03-.361.051l-.283.036a2.6,2.6,0,0,0-.487.109.849.849,0,0,0-.364.224.573.573,0,0,0-.138.4.6.6,0,0,0,.26.527A1.146,1.146,0,0,0,54.25-.5Zm3.125.5V-4.364h.648V-3.7h.045A1.048,1.048,0,0,1,58.5-4.23a1.271,1.271,0,0,1,.7-.2l.185,0q.111,0,.168.009v.682q-.034-.009-.155-.027a1.681,1.681,0,0,0-.254-.018,1.189,1.189,0,0,0-.567.132,1.008,1.008,0,0,0-.392.364.98.98,0,0,0-.143.527V0Z" transform="translate(1308 7198)" fill="#111"/>
    <path id="Line_9" data-name="Line 9" d="M41,.5H0v-1H41Z" transform="translate(1308.5 7209.5)" fill="#111"/>
    <path id="Line_10" data-name="Line 10" d="M46,.5H0v-1H46Z" transform="translate(1308.5 7215.5)" fill="#111"/>
    <path id="Line_11" data-name="Line 11" d="M53,.5H0v-1H53Z" transform="translate(1308.5 7221.5)" fill="#111"/>
  </g>
</svg>
