<svg xmlns="http://www.w3.org/2000/svg" width="30.282" height="21.197" viewBox="0 0 30.282 21.197">
  <path id="Icon_awesome-box-open" data-name="Icon awesome-box-open" d="M20.14,12.847a2.293,2.293,0,0,1-1.959-1.107L15.139,6.7,12.1,11.74a2.3,2.3,0,0,1-1.963,1.112,2.176,2.176,0,0,1-.629-.09L3.027,10.907v8.422A1.509,1.509,0,0,0,4.172,20.8L14.4,23.355a3.076,3.076,0,0,0,1.467,0L26.106,20.8a1.517,1.517,0,0,0,1.145-1.467V10.907l-6.482,1.85A2.176,2.176,0,0,1,20.14,12.847ZM30.2,7.539,27.762,2.675a.773.773,0,0,0-.79-.421L15.139,3.763l4.339,7.2a.778.778,0,0,0,.875.345l9.363-2.673A.779.779,0,0,0,30.2,7.539ZM2.516,2.675.079,7.539A.771.771,0,0,0,.557,8.627L9.921,11.3a.778.778,0,0,0,.875-.345l4.343-7.192L3.3,2.254A.773.773,0,0,0,2.516,2.675Z" transform="translate(0.003 -2.247)" fill="#fff"/>
</svg>
