<svg xmlns="http://www.w3.org/2000/svg" width="22.557" height="19.93" viewBox="0 0 22.557 19.93">
  <path id="Icon_feather-heart" data-name="Icon feather-heart" d="M17.469,3.5h0A6.41,6.41,0,0,1,22,14.441l-8.693,8.693a1,1,0,0,1-1.414,0L3.2,14.441a6.41,6.41,0,0,1,9.065-9.065l.335.335.335-.335A6.366,6.366,0,0,1,17.469,3.5ZM12.6,21.013l7.986-7.986A4.411,4.411,0,0,0,17.469,5.5h0a4.379,4.379,0,0,0-3.118,1.292L13.308,7.832a1,1,0,0,1-1.414,0L10.852,6.789a4.41,4.41,0,1,0-6.237,6.237Z" transform="translate(-1.323 -3.497)"/>
</svg>
