<svg xmlns="http://www.w3.org/2000/svg" width="156.44" height="54.607" viewBox="0 0 156.44 54.607">
  <g id="Group_1" data-name="Group 1" transform="translate(-369.146 -39.314)">
    <path id="Path_538" data-name="Path 538" d="M7.36.4C11.68.4,14-2.16,14-6.72c0-3.48-1.2-5.76-4.88-9-2.88-2.52-3.88-3.96-3.88-6,0-1.92.84-2.68,2.24-2.68s2.2.76,2.2,2.76v1.44h4.16v-1.16c0-4.48-2.12-7.04-6.4-7.04S.88-25.84.88-21.44c0,3.2,1.24,5.52,4.92,8.76C8.68-10.16,9.64-8.72,9.64-6.4c0,2.08-.92,2.8-2.32,2.8S5.04-4.32,5.04-6.32V-8.24H.88v1.6C.88-2.16,3.04.4,7.36.4ZM16.48,0H20.4V-20.44L25.84,0h4.44V-28H26.36v16.76L21.92-28H16.48ZM43.44,0h4.6L42.72-17.72,47.96-28H43.48L37.96-15.96V-28h-4.4V0h4.4V-8.8l1.8-3.52Zm6.68,0h4.4V-12h1.52c2,0,2.76.84,2.76,3.44v5.12A8.611,8.611,0,0,0,59.2,0h4.48a8.246,8.246,0,0,1-.48-3.4V-8.32c0-3.16-.72-5.24-2.92-5.92v-.08c1.96-.8,2.88-2.64,2.88-5.52v-1.72c0-4.32-1.96-6.44-6.52-6.44H50.12Zm4.4-16v-8h2c1.56,0,2.24.88,2.24,2.88v2.16c0,2.24-1,2.96-2.64,2.96Z" transform="translate(368.266 77.063)" fill="#111"/>
    <path id="Path_539" data-name="Path 539" d="M7.8.4c4.24,0,6.48-2.56,6.48-6.88v-3.76H10.12v4.08c0,1.84-.88,2.56-2.2,2.56s-2.2-.72-2.2-2.56V-21.8c0-1.84.88-2.6,2.2-2.6s2.2.76,2.2,2.6v3.24h4.16v-2.96c0-4.32-2.24-6.88-6.48-6.88s-6.48,2.56-6.48,6.88V-6.48C1.32-2.16,3.56.4,7.8.4ZM16.88,0H28.52V-4H21.28V-28h-4.4ZM37.04.4c4.32,0,6.56-2.56,6.56-7.04V-28H39.36V-6.32c0,2-.84,2.72-2.24,2.72s-2.24-.72-2.24-2.72V-28h-4.4V-6.64C30.48-2.16,32.72.4,37.04.4ZM46.72,0h6.92c4.4,0,6.68-2.32,6.68-6.64v-2.4c0-2.96-.92-5.04-3.28-5.84v-.08c1.96-.8,2.84-2.6,2.84-5.48v-1.12c0-4.32-1.96-6.44-6.52-6.44H46.72Zm4.4-16.6V-24h2.12c1.56,0,2.24.88,2.24,2.88v1.56c0,2.24-1,2.96-2.64,2.96Zm0,12.6v-8.6h1.96c2,0,2.84.8,2.84,3.4v2.44c0,2.08-.8,2.76-2.28,2.76Z" transform="translate(465.266 77.063)" fill="#111"/>
    <path id="Union_1" data-name="Union 1" d="M1.887,52.743l9.069-31.628L0,3.582,5.733,0l7.731,12.372,3.019-10.53,6.5,1.864-4.7,16.381,15.51,24.821-5.733,3.582L15.776,28.83,8.385,54.607Z" transform="translate(433.571 39.314)" fill="#a38d58"/>
  </g>
</svg>
