<svg xmlns="http://www.w3.org/2000/svg" width="75" height="46.875" viewBox="0 0 75 46.875">
  <g id="Group_428" data-name="Group 428" transform="translate(-887.559 -128.641)">
    <rect id="Rectangle_69" data-name="Rectangle 69" width="75" height="46.875" transform="translate(887.559 128.641)" fill="#fff"/>
    <g id="Group_427" data-name="Group 427" transform="translate(902.609 144.796)">
      <path id="Path_515" data-name="Path 515" d="M942.816,170.151h-3.664l2.29-14.072h3.664Z" transform="translate(-923.352 -155.827)" fill="#111"/>
      <path id="Path_516" data-name="Path 516" d="M925.446,156.079l-3.493,9.679-.413-2.084h0l-1.232-6.328a1.569,1.569,0,0,0-1.738-1.267h-5.775l-.067.238a13.688,13.688,0,0,1,3.832,1.608l3.182,12.226h3.818l5.83-14.072Z" transform="translate(-912.728 -155.827)" fill="#111"/>
      <path id="Path_517" data-name="Path 517" d="M975.691,170.151h3.363l-2.932-14.072h-2.945a1.685,1.685,0,0,0-1.692,1.048l-5.463,13.024h3.819l.763-2.09h4.659Zm-4.031-4.977,1.925-5.267,1.083,5.267Z" transform="translate(-934.155 -155.827)" fill="#111"/>
      <path id="Path_518" data-name="Path 518" d="M959.486,159.294l.522-3.022a10.569,10.569,0,0,0-3.295-.613c-1.818,0-6.135.795-6.135,4.659,0,3.636,5.068,3.681,5.068,5.59s-4.546,1.568-6.046.364l-.545,3.159a10.261,10.261,0,0,0,4.135.8c2.5,0,6.272-1.3,6.272-4.818,0-3.659-5.113-4-5.113-5.591S957.919,158.429,959.486,159.294Z" transform="translate(-927.333 -155.658)" fill="#111"/>
    </g>
    <path id="Path_519" data-name="Path 519" d="M921.54,163.674l-1.232-6.328a1.569,1.569,0,0,0-1.738-1.267h-5.775l-.067.238a14.2,14.2,0,0,1,5.436,2.73A10.984,10.984,0,0,1,921.54,163.674Z" transform="translate(-10.12 -11.032)" fill="#f9a533"/>
  </g>
</svg>
